<?xml version="1.0" encoding="UTF-8" standalone="no"?>
<svg
   viewBox="0 0 216 198"
   width="216mm"
   height="198mm"
   version="1.1"
   id="svg44"
   sodipodi:docname="frontplate-final-final-edit2.svg"
   inkscape:version="1.2.2 (b0a8486541, 2022-12-01)"
   xmlns:inkscape="http://www.inkscape.org/namespaces/inkscape"
   xmlns:sodipodi="http://sodipodi.sourceforge.net/DTD/sodipodi-0.dtd"
   xmlns="http://www.w3.org/2000/svg"
   xmlns:svg="http://www.w3.org/2000/svg">
  <defs
     id="defs48">
    <rect
       x="830.0421"
       y="-320.07234"
       width="1125.7037"
       height="1206.8744"
       id="rect335" />
    <rect
       x="830.0421"
       y="-320.07234"
       width="1125.7037"
       height="1206.8744"
       id="rect605" />
    <rect
       x="830.0421"
       y="-320.07234"
       width="1125.7037"
       height="1206.8744"
       id="rect611" />
    <rect
       x="830.0421"
       y="-320.07234"
       width="1125.7037"
       height="1206.8744"
       id="rect617" />
    <rect
       x="830.0421"
       y="-320.07234"
       width="1125.7037"
       height="1206.8744"
       id="rect623" />
  </defs>
  <sodipodi:namedview
     id="namedview46"
     pagecolor="#ffffff"
     bordercolor="#000000"
     borderopacity="0.25"
     inkscape:showpageshadow="2"
     inkscape:pageopacity="0.0"
     inkscape:pagecheckerboard="0"
     inkscape:deskcolor="#d1d1d1"
     inkscape:document-units="mm"
     showgrid="true"
     inkscape:zoom="0.57894359"
     inkscape:cx="407.63903"
     inkscape:cy="240.95612"
     inkscape:window-width="1440"
     inkscape:window-height="809"
     inkscape:window-x="0"
     inkscape:window-y="28"
     inkscape:window-maximized="1"
     inkscape:current-layer="layer1">
    <inkscape:grid
       type="xygrid"
       id="grid277"
       units="mm"
       spacingx="18.000001"
       spacingy="18.000001" />
  </sodipodi:namedview>
  <!-- Mon Jan 19 2026 19:17:58 GMT+0100 (Central European Standard Time) -->
  <!-- 

OPTS={
  "seed": "flurp1768846678180"
};
(code=_=>{
  // update the default opts from the URL search params and output as a nice table to the console
  console.table(OPTS={...OPTS,...Object.fromEntries(new URL(location).searchParams)});

  // random number generator
  console.log(`Random seed = ${OPTS.seed}`);
  PRNGG=(s,a=9,b,c,d,R=(x=1)=>x*(x=d^d<<11,d=c,c=b,b=a,((a^=x^x>>>8^(b>>>19))>>>0)/2**32))=>([...s+'ThxPiter'].map(e=>R(d^=e.charCodeAt()*a)),R); // pseudo random number generator generator
  R=PRNGG(OPTS.seed); // your PRNG
  // random functions
  RS=(a=1)=>R()<.5?a:-a; // random sign 1 / -1
  RR=(a=1,b=-a)=>a+R(b-a); // uniform random range [a..b]
  RA=a=>a[R(a.length)|0]; // random element from Array
  T=a=>R(a)-R(a); // triangular distribution

  // get some math definitions and useful functions
  ({abs,sin,cos,PI,max,min,floor}=Math); TAU=PI*2;
  A=([x=0,y=0],[a,b],t=1)=>[x+a*t,y+b*t]; // vec2 add/mul
  L=(x,y,z=0)=>(x*x+y*y+z*z)**.5;
  Lv2=([x,y])=>(x*x+y*y)**.5;
  H=([x,y,z=0],[a,b,c=0])=>L(x-a,y-b,z-c);

  F=(N,f)=>[...Array(N)].map((_,i)=>f(i)); // loop function
  SM=(a,b,x)=>(x-=a,x/=b-a)<0?0:x>1?1:x*x*(3-2*x); // smoothstep 48
  cl=(x,a,b)=>x<a?a:x>b?b:x; // clamp

  let B=abs,U=min,G=max,Z=floor,k=(a,b)=>a>0&&b>0?(a*a+b*b)**.5:a>b?a:b;
  let mx2=([a,b],[c,d],t=.5,s=1-t)=>[s*a+t*c,s*b+t*d];

  let mmw=216, mmh=198;

    // SVG comment helper function (avoid writing "minus minus" in the SVG, for reasons)
    let cmt = (str, d='-' + '-') => `<!${d} ${str.replaceAll(d, '_-_-_')} ${d}>`;

    let svg=[
      // starting with the main svg tag, don't forget to close it later
      `<svg xmlns="http://www.w3.org/2000/svg" xmlns:inkscape="http://www.inkscape.org/namespaces/inkscape" viewBox="0 0 ${mmw} ${mmh}" width="${mmw}mm" height="${mmh}mm">`,
      // let's comment the date!
      cmt(Date()), 
      // in fact, let's comment the OPTS options and the entire code of this very program, 
      // because we can
      cmt(`\n\nOPTS=${JSON.stringify(OPTS,null,2)};\n(code=${code})();\n\n`)
    ];

    svg.push(
      `<g inkscape:groupmode="layer" inkscape:label="plate-outline" fill="none" stroke="#000000" stroke-width="0.2">`,
      `<rect x="0" y="0" width="${mmw}" height="${mmh}" rx="3" ry="3" />`,
      `</g>`
    );

    svg.push(`<g inkscape:groupmode="layer" inkscape:label="pots" fill="none" stroke="#000000" stroke-width="0.2">`);
    for(let i=0; i<5; i++) {
      svg.push(`<circle cx="${36+36*i}" cy="${36}" r="${23/2}" />`);
    }
    svg.push(`</g>`);

    svg.push(`<g inkscape:groupmode="layer" inkscape:label="butts" fill="none" stroke="#000000" stroke-width="0.2">`);
    for(let i=0; i<12; i++) {
      if(i==5||i==6)continue;
      let r=i/4|0, c=i-r*4;
      svg.push(`<circle cx="${54+36*c}" cy="${90+36*r}" r="${16/2}" />`);
    }
    svg.push(`</g>`);

    let oledw=58, oledh=30, oledy=-2.5;
    let oledfh=2.5, oledftop=2,oledfbot=8;
    let pcbmar=4;
    // svg.push(
    //   `<g inkscape:groupmode="layer" inkscape:label="oled-inner" fill="none" stroke="#0066cc" stroke-width="0.2">`,
    //   `<rect x="${mmw/2-oledw/2}" y="${oledy+mmh/2-oledh/2-9+36}" width="${oledw}" height="${oledh}" />`,
    //   `</g>`
    // );
    svg.push(
      `<g inkscape:groupmode="layer" inkscape:label="oled-frame" fill="none" stroke="#000000" stroke-width="0.2">`,
      `<rect x="${mmw/2-oledw/2-oledfh}" y="${oledy+mmh/2-oledh/2-9+36-oledftop}" width="${oledw+oledfh*2}" height="${oledh+oledftop+oledfbot}" />`,
      `</g>`
    );
    // svg.push(
    //   `<g inkscape:groupmode="layer" inkscape:label="oled-pcb" fill="none" stroke="#008800" stroke-width="0.2">`,
    //   `<rect x="${mmw/2-oledw/2-oledfh-pcbmar}" y="${oledy+mmh/2-oledh/2-9+36-oledftop-pcbmar}" width="${oledw+oledfh*2+pcbmar*2}" height="${oledh+oledftop+oledfbot+pcbmar*2}" />`,
    //   `</g>`
    // );

    // close the svg
    svg.push(`</svg>`);

  // put the SVG into the image
  let start_time = Date.now();
  let im = new Image();
  let blob = new Blob(svg,{type:'image/svg+xml'});
  im.src=URL.createObjectURL(blob);
  // put the image into the webpage
  document.body.append(im);

  console.log(`Done in ${(Date.now()-start_time)|0}ms. SVG size = ${(blob.size/1000|0).toFixed(1)}KB`);
})();

 -->
  <g
     inkscape:groupmode="layer"
     inkscape:label="plate-outline"
     fill="none"
     stroke="#000000"
     stroke-width="0.2"
     id="g4">
    <rect
       x="0"
       y="0"
       width="216"
       height="198"
       rx="3"
       ry="3"
       id="rect2" />
  </g>
  <g
     inkscape:groupmode="layer"
     inkscape:label="pots"
     fill="none"
     stroke="#000000"
     stroke-width="0.2"
     id="g16">
    <circle
       cx="36"
       cy="36"
       r="11.5"
       id="circle6" />
    <circle
       cx="72"
       cy="36"
       r="11.5"
       id="circle8" />
    <circle
       cx="108"
       cy="36"
       r="11.5"
       id="circle10" />
    <circle
       cx="144"
       cy="36"
       r="11.5"
       id="circle12" />
    <circle
       cx="180"
       cy="36"
       r="11.5"
       id="circle14" />
  </g>
  <g
     inkscape:groupmode="layer"
     inkscape:label="butts"
     fill="none"
     stroke="#000000"
     stroke-width="0.2"
     id="g38">
    <circle
       cx="54"
       cy="90"
       r="8"
       id="circle18" />
    <circle
       cx="90"
       cy="90"
       r="8"
       id="circle20" />
    <circle
       cx="126"
       cy="90"
       r="8"
       id="circle22" />
    <circle
       cx="162"
       cy="90"
       r="8"
       id="circle24" />
    <circle
       cx="54"
       cy="126"
       r="8"
       id="circle26" />
    <circle
       cx="162"
       cy="126"
       r="8"
       id="circle28" />
    <circle
       cx="54"
       cy="162"
       r="8"
       id="circle30" />
    <circle
       cx="90"
       cy="162"
       r="8"
       id="circle32" />
    <circle
       cx="126"
       cy="162"
       r="8"
       id="circle34" />
    <circle
       cx="162"
       cy="162"
       r="8"
       id="circle36" />
  </g>
  <g
     inkscape:groupmode="layer"
     inkscape:label="oled-frame"
     fill="none"
     stroke="#000000"
     stroke-width="0.2"
     id="g42">
    <rect
       x="76.5"
       y="106.5"
       width="63"
       height="40"
       id="rect40" />
  </g>
  <g
     inkscape:groupmode="layer"
     id="layer1"
     inkscape:label="labels"
     style="display:inline">
    <g
       aria-label="CUT"
       transform="matrix(0.26458333,0,0,0.26458333,-192.02553,140.53755)"
       id="text333"
       style="font-weight:bold;font-size:37.7953px;font-family:'Ubuntu Mono';-inkscape-font-specification:'Ubuntu Mono Bold';white-space:pre;shape-inside:url(#rect335);fill:#800000;stroke-width:0.113386;stroke-linecap:round;stroke-linejoin:round">
      <path
         d="m 842.59101,-283.35789 q -3.66615,0 -6.23623,-1.5874 -2.53228,-1.6252 -3.85512,-4.68662 -1.32283,-3.06142 -1.32283,-7.40788 0,-4.34646 1.54961,-7.40788 1.5496,-3.06142 4.23307,-4.64882 2.72126,-1.6252 6.12284,-1.6252 1.85197,0 3.2126,0.37795 1.39842,0.37796 2.26772,0.8315 0.90708,0.41575 1.28504,0.68032 l -1.36064,4.15748 q -0.94488,-0.64252 -2.3433,-1.05827 -1.39843,-0.45354 -3.13701,-0.45354 -1.58741,0 -3.09922,0.83149 -1.51181,0.79371 -2.49449,2.75906 -0.94488,1.96536 -0.94488,5.40473 0,2.94803 0.68032,5.02677 0.68031,2.07875 2.15433,3.17481 1.47401,1.09606 3.77953,1.09606 2.00315,0 3.36378,-0.45354 1.36063,-0.45354 2.15433,-0.94488 l 1.28504,4.08189 q -1.05827,0.68031 -2.94803,1.28504 -1.88977,0.56693 -4.34646,0.56693 z"
         id="path757" />
      <path
         d="m 861.71541,-283.35789 q -3.40158,0 -5.32914,-1.20945 -1.92756,-1.24725 -2.72126,-3.51496 -0.7937,-2.26772 -0.7937,-5.32914 v -16.70552 h 5.25355 v 16.36536 q 0,2.19213 0.30236,3.47717 0.30236,1.28504 1.09606,1.85197 0.8315,0.52913 2.26772,0.52913 1.47402,0 2.26772,-0.52913 0.8315,-0.56693 1.13386,-1.85197 0.34016,-1.32284 0.34016,-3.51496 v -16.32757 h 5.17795 v 16.70552 q 0,3.06142 -0.8315,5.32914 -0.7937,2.26771 -2.75905,3.51496 -1.92756,1.20945 -5.40473,1.20945 z"
         id="path759" />
      <path
         d="m 880.34847,-283.92482 v -21.88348 h -6.91654 v -4.30866 h 19.04883 v 4.30866 h -6.91654 v 21.88348 z"
         id="path761" />
    </g>
    <g
       aria-label="DEC
"
       transform="matrix(0.26458333,0,0,0.26458333,-84.140519,140.53755)"
       id="text603"
       style="font-weight:bold;font-size:37.7953px;font-family:'Ubuntu Mono';-inkscape-font-specification:'Ubuntu Mono Bold';white-space:pre;shape-inside:url(#rect605);fill:#800000;stroke-width:0.113386;stroke-linecap:round;stroke-linejoin:round">
      <path
         d="m 837.90439,-283.58466 q -1.39843,0 -2.72126,-0.15118 -1.32284,-0.15119 -2.87244,-0.49134 v -25.54963 q 1.77638,-0.41574 3.32598,-0.52913 1.58741,-0.11339 2.94804,-0.11339 3.47716,0 6.04724,1.39843 2.60788,1.36063 4.00631,4.30866 1.43622,2.94804 1.43622,7.67245 0,4.87559 -1.58741,7.82363 -1.5496,2.94803 -4.30866,4.30866 -2.72126,1.32284 -6.27402,1.32284 z m 0.56693,-4.53544 q 2.3811,0 3.74174,-1.13386 1.39842,-1.17165 1.96535,-3.1748 0.60473,-2.04095 0.60473,-4.61103 0,-2.30551 -0.49134,-4.30866 -0.45355,-2.00315 -1.70079,-3.2504 -1.20945,-1.28504 -3.51496,-1.28504 -0.79371,0 -1.54961,0.11339 v 17.61261 q 0.18897,0.0378 0.45354,0.0378 0.26457,0 0.49134,0 z"
         id="path764" />
      <path
         d="m 853.89178,-283.92482 v -26.19214 h 15.87403 v 4.30866 h -10.69607 v 5.89607 h 9.29764 v 4.30866 h -9.29764 v 7.37008 h 11.60316 v 4.30867 z"
         id="path766" />
      <path
         d="m 884.9217,-283.35789 q -3.66614,0 -6.23622,-1.5874 -2.53229,-1.6252 -3.85512,-4.68662 -1.32284,-3.06142 -1.32284,-7.40788 0,-4.34646 1.54961,-7.40788 1.54961,-3.06142 4.23307,-4.64882 2.72127,-1.6252 6.12284,-1.6252 1.85197,0 3.2126,0.37795 1.39843,0.37796 2.26772,0.8315 0.90709,0.41575 1.28504,0.68032 l -1.36063,4.15748 q -0.94488,-0.64252 -2.34331,-1.05827 -1.39842,-0.45354 -3.13701,-0.45354 -1.5874,0 -3.09921,0.83149 -1.51181,0.79371 -2.49449,2.75906 -0.94488,1.96536 -0.94488,5.40473 0,2.94803 0.68031,5.02677 0.68032,2.07875 2.15433,3.17481 1.47402,1.09606 3.77953,1.09606 2.00315,0 3.36378,-0.45354 1.36064,-0.45354 2.15434,-0.94488 l 1.28504,4.08189 q -1.05827,0.68031 -2.94804,1.28504 -1.88976,0.56693 -4.34646,0.56693 z"
         id="path768" />
    </g>
    <g
       aria-label="ACC
"
       transform="matrix(0.26458333,0,0,0.26458333,-47.890517,140.53755)"
       id="text609"
       style="font-weight:bold;font-size:37.7953px;font-family:'Ubuntu Mono';-inkscape-font-specification:'Ubuntu Mono Bold';white-space:pre;shape-inside:url(#rect611);fill:#800000;stroke-width:0.113386;stroke-linecap:round;stroke-linejoin:round">
      <path
         d="m 830.42092,-283.92482 q 0.94488,-3.85512 1.88977,-7.37008 0.94488,-3.51497 1.88976,-6.72757 0.94488,-3.25039 1.85197,-6.23622 0.90709,-3.02363 1.81418,-5.85827 h 5.66929 q 0.90709,2.83464 1.85197,5.89606 0.94488,3.06142 1.85197,6.31182 0.90709,3.25039 1.81417,6.76536 0.90709,3.47716 1.77638,7.2189 h -5.5937 l -1.20945,-6.04725 h -6.99213 l -1.20945,6.04725 z m 7.59686,-10.35591 h 5.10236 q -0.30236,-1.88977 -0.68031,-3.59056 -0.37796,-1.70078 -0.8315,-3.43937 -0.45354,-1.77638 -1.02047,-3.74173 -0.56693,1.96535 -1.02048,3.74173 -0.45354,1.73859 -0.83149,3.43937 -0.37796,1.70079 -0.71811,3.59056 z"
         id="path771" />
      <path
         d="m 863.75636,-283.35789 q -3.66615,0 -6.23623,-1.5874 -2.53228,-1.6252 -3.85512,-4.68662 -1.32283,-3.06142 -1.32283,-7.40788 0,-4.34646 1.5496,-7.40788 1.54961,-3.06142 4.23308,-4.64882 2.72126,-1.6252 6.12284,-1.6252 1.85196,0 3.2126,0.37795 1.39842,0.37796 2.26771,0.8315 0.90709,0.41575 1.28504,0.68032 l -1.36063,4.15748 q -0.94488,-0.64252 -2.34331,-1.05827 -1.39842,-0.45354 -3.13701,-0.45354 -1.5874,0 -3.09921,0.83149 -1.51181,0.79371 -2.49449,2.75906 -0.94488,1.96536 -0.94488,5.40473 0,2.94803 0.68031,5.02677 0.68032,2.07875 2.15434,3.17481 1.47401,1.09606 3.77953,1.09606 2.00315,0 3.36378,-0.45354 1.36063,-0.45354 2.15433,-0.94488 l 1.28504,4.08189 q -1.05827,0.68031 -2.94803,1.28504 -1.88977,0.56693 -4.34646,0.56693 z"
         id="path773" />
      <path
         d="m 884.9217,-283.35789 q -3.66614,0 -6.23622,-1.5874 -2.53229,-1.6252 -3.85512,-4.68662 -1.32284,-3.06142 -1.32284,-7.40788 0,-4.34646 1.54961,-7.40788 1.54961,-3.06142 4.23307,-4.64882 2.72127,-1.6252 6.12284,-1.6252 1.85197,0 3.2126,0.37795 1.39843,0.37796 2.26772,0.8315 0.90709,0.41575 1.28504,0.68032 l -1.36063,4.15748 q -0.94488,-0.64252 -2.34331,-1.05827 -1.39842,-0.45354 -3.13701,-0.45354 -1.5874,0 -3.09921,0.83149 -1.51181,0.79371 -2.49449,2.75906 -0.94488,1.96536 -0.94488,5.40473 0,2.94803 0.68031,5.02677 0.68032,2.07875 2.15433,3.17481 1.47402,1.09606 3.77953,1.09606 2.00315,0 3.36378,-0.45354 1.36064,-0.45354 2.15434,-0.94488 l 1.28504,4.08189 q -1.05827,0.68031 -2.94804,1.28504 -1.88976,0.56693 -4.34646,0.56693 z"
         id="path775" />
    </g>
    <g
       aria-label="MOD
"
       transform="matrix(0.26458333,0,0,0.26458333,-119.99553,140.53755)"
       id="text615"
       style="font-weight:bold;font-size:37.7953px;font-family:'Ubuntu Mono';-inkscape-font-specification:'Ubuntu Mono Bold';white-space:pre;shape-inside:url(#rect617);fill:#800000;stroke-width:0.113386;stroke-linecap:round;stroke-linejoin:round">
      <path
         d="m 831.02565,-283.92482 q 0.11338,-3.2126 0.26456,-6.65197 0.15118,-3.47717 0.30237,-6.91654 0.18897,-3.47717 0.41574,-6.68977 0.22678,-3.2126 0.52914,-5.93386 h 4.30866 q 0.41575,1.20945 1.05827,3.25039 0.64252,2.00315 1.32284,4.23308 0.71811,2.22992 1.32283,4.11968 0.71811,-2.11653 1.39843,-4.30866 0.71811,-2.22992 1.36063,-4.15748 0.64252,-1.92756 1.05827,-3.13701 h 4.30866 q 0.41575,4.57323 0.71811,8.88189 0.34016,4.27087 0.52914,8.54174 0.22677,4.23307 0.30236,8.76851 h -4.76221 q 0.0378,-3.40158 0.0756,-6.76536 0.0378,-3.40158 0.0756,-6.80315 0.0378,-3.43938 0.0756,-6.80316 l -3.2126,11.11182 h -3.81732 l -3.06142,-11.11182 q 0.0378,3.36378 0.0378,6.80316 0.0378,3.40157 0.0756,6.80315 0.0378,3.36378 0.0756,6.76536 z"
         id="path778" />
      <path
         d="m 861.8288,-283.35789 q -3.02363,0 -5.17796,-1.54961 -2.11654,-1.54961 -3.2126,-4.61103 -1.09606,-3.06141 -1.09606,-7.52126 0,-4.49764 1.13385,-7.52126 1.13386,-3.06142 3.2504,-4.61103 2.11654,-1.54961 5.06457,-1.54961 3.06142,0 5.17796,1.54961 2.11653,1.54961 3.1748,4.61103 1.09607,3.02362 1.09607,7.52126 0,4.45985 -1.13386,7.52126 -1.09607,3.06142 -3.2126,4.61103 -2.07875,1.54961 -5.06457,1.54961 z m -0.0378,-4.53544 q 1.77638,0 2.64567,-1.24724 0.90709,-1.24725 1.20945,-3.32599 0.30236,-2.07874 0.30236,-4.57323 0,-2.57008 -0.30236,-4.61103 -0.26457,-2.07874 -1.17165,-3.28819 -0.86929,-1.24724 -2.68347,-1.24724 -1.77638,0 -2.68347,1.24724 -0.86929,1.24725 -1.17165,3.32599 -0.30236,2.04095 -0.30236,4.57323 0,2.53229 0.26456,4.61103 0.30237,2.07874 1.20945,3.32598 0.90709,1.20945 2.68347,1.20945 z"
         id="path780" />
      <path
         d="m 880.23509,-283.58466 q -1.39843,0 -2.72126,-0.15118 -1.32284,-0.15119 -2.87245,-0.49134 v -25.54963 q 1.77638,-0.41574 3.32599,-0.52913 1.5874,-0.11339 2.94803,-0.11339 3.47717,0 6.04725,1.39843 2.60788,1.36063 4.0063,4.30866 1.43622,2.94804 1.43622,7.67245 0,4.87559 -1.5874,7.82363 -1.54961,2.94803 -4.30866,4.30866 -2.72126,1.32284 -6.27402,1.32284 z m 0.56693,-4.53544 q 2.3811,0 3.74173,-1.13386 1.39843,-1.17165 1.96536,-3.1748 0.60472,-2.04095 0.60472,-4.61103 0,-2.30551 -0.49134,-4.30866 -0.45354,-2.00315 -1.70079,-3.2504 -1.20945,-1.28504 -3.51496,-1.28504 -0.7937,0 -1.54961,0.11339 v 17.61261 q 0.18898,0.0378 0.45355,0.0378 0.26456,0 0.49134,0 z"
         id="path782" />
    </g>
    <g
       aria-label="RES
"
       transform="matrix(0.26458333,0,0,0.26458333,-156.09053,140.53755)"
       id="text621"
       style="font-weight:bold;font-size:37.7953px;font-family:'Ubuntu Mono';-inkscape-font-specification:'Ubuntu Mono Bold';white-space:pre;shape-inside:url(#rect623);fill:#800000;stroke-width:0.113386;stroke-linecap:round;stroke-linejoin:round">
      <path
         d="m 832.31069,-283.92482 v -25.81419 q 1.02047,-0.26457 2.26771,-0.41575 1.28504,-0.15118 2.49449,-0.18898 1.20945,-0.0756 2.04095,-0.0756 4.49764,0 7.18111,2.11654 2.72126,2.07874 2.72126,6.463 0,2.30551 -0.94488,4.15748 -0.90709,1.85197 -3.09922,2.83465 0.98268,1.43622 2.04095,3.32598 1.09606,1.85197 2.07874,3.85512 0.98268,1.96536 1.66299,3.74174 h -5.48032 q -0.60472,-1.66299 -1.43622,-3.2504 -0.7937,-1.62519 -1.70079,-3.2126 -0.90708,-1.5874 -1.88976,-3.1748 -0.15118,0 -0.30236,0 -0.11339,0 -0.26457,0 h -2.15433 v 9.6378 z m 5.21575,-13.98426 h 1.13386 q 1.81417,0 2.91024,-0.45355 1.13385,-0.49133 1.62519,-1.36063 0.52914,-0.90708 0.52914,-2.15433 0,-1.39842 -0.60473,-2.26772 -0.56693,-0.86929 -1.6252,-1.28504 -1.02047,-0.45354 -2.3811,-0.45354 -0.26457,0 -0.71811,0.0378 -0.45354,0 -0.86929,0.0756 z"
         id="path785" />
      <path
         d="m 853.89178,-283.92482 v -26.19214 h 15.87403 v 4.30866 h -10.69607 v 5.89607 h 9.29764 v 4.30866 h -9.29764 v 7.37008 h 11.60316 v 4.30867 z"
         id="path787" />
      <path
         d="m 882.20044,-283.35789 q -2.19212,0 -3.77953,-0.34016 -1.5496,-0.34016 -2.60787,-0.7937 -1.05827,-0.49134 -1.73859,-0.86929 l 1.51182,-4.23308 q 1.13385,0.64252 2.72126,1.24725 1.62519,0.60472 3.89291,0.60472 1.77638,0 2.72126,-0.45354 0.94489,-0.49134 1.32284,-1.24724 0.37795,-0.79371 0.37795,-1.663 0,-1.13386 -0.7937,-1.88976 -0.7559,-0.75591 -1.92756,-1.28504 -1.13386,-0.56693 -2.30551,-1.02048 -1.17166,-0.45354 -2.4189,-0.98267 -1.24725,-0.56693 -2.34331,-1.39843 -1.05827,-0.8315 -1.73858,-2.07874 -0.64252,-1.28504 -0.64252,-3.13701 0,-3.66615 2.4189,-5.74489 2.41889,-2.07874 6.53858,-2.07874 2.38111,0 4.19528,0.56693 1.85197,0.56693 3.06142,1.20945 l -1.51181,4.0063 q -1.05827,-0.60472 -2.38111,-1.02047 -1.28504,-0.41575 -2.98582,-0.41575 -1.39843,0 -2.30552,0.34016 -0.90709,0.34016 -1.36063,1.02047 -0.45354,0.68032 -0.45354,1.663 0,0.98267 0.68031,1.70078 0.71811,0.68032 1.77638,1.17166 1.09607,0.49134 2.15433,0.90709 1.24725,0.45354 2.57008,1.05826 1.32284,0.56693 2.4567,1.47402 1.13386,0.90709 1.81417,2.3811 0.71811,1.43623 0.71811,3.59056 0,3.66614 -2.4189,5.70709 -2.3811,2.00315 -7.2189,2.00315 z"
         id="path789" />
    </g>
  </g>
</svg>
